<svg xmlns="http://www.w3.org/2000/svg" width="1600" height="700" viewBox="0 0 1600 700" role="img" aria-label="Hero image for Why Timelines Slip"><defs><linearGradient id="g" x1="0" y1="0" x2="1" y2="1"><stop offset="0%" stop-color="#0f172a"/><stop offset="100%" stop-color="#334155"/></linearGradient><filter id="shadow" x="-20%" y="-20%" width="140%" height="140%"><feDropShadow dx="0" dy="6" stdDeviation="8" flood-opacity="0.35"/></filter></defs><rect width="1600" height="700" fill="url(#g)"/><rect x="140" y="230" width="150" height="74" rx="14" fill="#fff" opacity="0.10"/><rect x="330" y="325" width="150" height="74" rx="14" fill="#fff" opacity="0.10"/><rect x="520" y="230" width="150" height="74" rx="14" fill="#fff" opacity="0.10"/><rect x="710" y="325" width="150" height="74" rx="14" fill="#fff" opacity="0.10"/><rect x="900" y="230" width="150" height="74" rx="14" fill="#fff" opacity="0.10"/><rect x="1090" y="325" width="150" height="74" rx="14" fill="#fff" opacity="0.10"/><rect x="1280" y="230" width="150" height="74" rx="14" fill="#fff" opacity="0.10"/><line x1="290" y1="267" x2="330" y2="225" stroke="#93c5fd" stroke-width="4" opacity="0.5"/><line x1="480" y1="362" x2="520" y2="320" stroke="#93c5fd" stroke-width="4" opacity="0.5"/><line x1="670" y1="267" x2="710" y2="225" stroke="#93c5fd" stroke-width="4" opacity="0.5"/><line x1="860" y1="362" x2="900" y2="320" stroke="#93c5fd" stroke-width="4" opacity="0.5"/><line x1="1050" y1="267" x2="1090" y2="225" stroke="#93c5fd" stroke-width="4" opacity="0.5"/><line x1="1240" y1="362" x2="1280" y2="320" stroke="#93c5fd" stroke-width="4" opacity="0.5"/><rect x="0" y="470" width="1600" height="230" fill="#000" opacity="0.30"/><text x="88" y="560" font-family="Inter,Arial,sans-serif" font-size="62" font-weight="800" fill="#f8fafc" filter="url(#shadow)">Why Timelines Slip</text><text x="92" y="612" font-family="Inter,Arial,sans-serif" font-size="28" fill="#cbd5e1">Fix operating-system bottlenecks</text><text x="92" y="655" font-family="Inter,Arial,sans-serif" font-size="20" fill="#93c5fd">BeyondZenith Insights</text></svg>