<svg xmlns="http://www.w3.org/2000/svg" width="1600" height="700" viewBox="0 0 1600 700" role="img" aria-label="GEO Playbook hero visual">
  <defs>
    <linearGradient id="bg" x1="0" y1="0" x2="1" y2="1">
      <stop offset="0%" stop-color="#0B1020"/>
      <stop offset="100%" stop-color="#152544"/>
    </linearGradient>
    <linearGradient id="acc" x1="0" y1="0" x2="1" y2="0">
      <stop offset="0%" stop-color="#2F5BFF"/>
      <stop offset="100%" stop-color="#7DD3FC"/>
    </linearGradient>
    <filter id="blur" x="-20%" y="-20%" width="140%" height="140%"><feGaussianBlur stdDeviation="18"/></filter>
  </defs>
  <rect width="1600" height="700" fill="url(#bg)"/>
  <circle cx="1340" cy="90" r="180" fill="#2F5BFF" opacity="0.14" filter="url(#blur)"/>
  <circle cx="220" cy="640" r="220" fill="#22D3EE" opacity="0.08" filter="url(#blur)"/>
  <rect x="72" y="72" width="150" height="38" rx="19" fill="#111B35" stroke="#38579B"/>
  <text x="96" y="98" font-family="Inter,Arial,sans-serif" font-size="18" font-weight="700" fill="#CFE0FF">INSIGHT</text>
  <rect x="240" y="72" width="220" height="38" rx="19" fill="#0f1c35" stroke="#2c467d"/>
  <text x="262" y="98" font-family="Inter,Arial,sans-serif" font-size="18" font-weight="600" fill="#9FC4FF">GEO Playbook</text>

  <g fill="#A5BFFF" stroke="#5A7ED4" stroke-width="2" opacity="0.95">
    <circle cx="260" cy="290" r="16"/><circle cx="450" cy="210" r="14"/><circle cx="640" cy="300" r="16"/>
    <circle cx="840" cy="220" r="16"/><circle cx="1040" cy="320" r="18"/><circle cx="1230" cy="230" r="16"/><circle cx="1410" cy="320" r="14"/>
  </g>
  <g stroke="url(#acc)" stroke-width="3" fill="none" opacity="0.8">
    <path d="M260 290L450 210L640 300L840 220L1040 320L1230 230L1410 320"/>
  </g>
  <g>
    <circle cx="840" cy="220" r="62" fill="#2F5BFF" opacity="0.14"/>
    <circle cx="840" cy="220" r="88" stroke="#2F5BFF" opacity="0.2" fill="none"/>
  </g>

</svg>