<svg xmlns="http://www.w3.org/2000/svg" width="1600" height="700" viewBox="0 0 1600 700" role="img" aria-label="Due Diligence hero visual">
  <defs>
    <linearGradient id="bg" x1="0" y1="0" x2="1" y2="1">
      <stop offset="0%" stop-color="#0B1020"/>
      <stop offset="100%" stop-color="#152544"/>
    </linearGradient>
    <linearGradient id="acc" x1="0" y1="0" x2="1" y2="0">
      <stop offset="0%" stop-color="#2F5BFF"/>
      <stop offset="100%" stop-color="#7DD3FC"/>
    </linearGradient>
    <filter id="blur" x="-20%" y="-20%" width="140%" height="140%"><feGaussianBlur stdDeviation="18"/></filter>
  </defs>
  <rect width="1600" height="700" fill="url(#bg)"/>
  <circle cx="1340" cy="90" r="180" fill="#2F5BFF" opacity="0.14" filter="url(#blur)"/>
  <circle cx="220" cy="640" r="220" fill="#22D3EE" opacity="0.08" filter="url(#blur)"/>
  <rect x="72" y="72" width="150" height="38" rx="19" fill="#111B35" stroke="#38579B"/>
  <text x="96" y="98" font-family="Inter,Arial,sans-serif" font-size="18" font-weight="700" fill="#CFE0FF">INSIGHT</text>
  <rect x="240" y="72" width="220" height="38" rx="19" fill="#0f1c35" stroke="#2c467d"/>
  <text x="262" y="98" font-family="Inter,Arial,sans-serif" font-size="18" font-weight="600" fill="#9FC4FF">Due Diligence</text>

  <g stroke="#4B6FD1" fill="none" opacity="0.8">
    <path d="M220 170L520 220L620 500L320 570L170 360Z" stroke-width="2"/>
    <path d="M560 200L920 170L1120 420L840 560L620 500Z" stroke-width="2"/>
    <path d="M930 180L1310 230L1420 460L1100 560L920 420Z" stroke-width="2"/>
  </g>
  <g fill="#9EB9FF" opacity="0.85">
    <circle cx="360" cy="300" r="9"/><circle cx="560" cy="420" r="8"/><circle cx="760" cy="320" r="8"/><circle cx="980" cy="280" r="8"/><circle cx="1160" cy="360" r="9"/>
  </g>
  <g stroke="#7AA2FF" stroke-width="2" opacity="0.75">
    <path d="M360 300L560 420L760 320L980 280L1160 360"/>
  </g>
  <rect x="122" y="520" width="420" height="74" rx="14" fill="#101A31" stroke="#315089"/>
  <text x="152" y="566" font-family="Inter,Arial,sans-serif" font-size="30" font-weight="700" fill="#E2ECFF">Risk exposure map</text>

</svg>