<svg xmlns="http://www.w3.org/2000/svg" width="1600" height="700" viewBox="0 0 1600 700" role="img" aria-label="CTO Model hero visual">
  <defs>
    <linearGradient id="bg" x1="0" y1="0" x2="1" y2="1">
      <stop offset="0%" stop-color="#0B1020"/>
      <stop offset="100%" stop-color="#152544"/>
    </linearGradient>
    <linearGradient id="acc" x1="0" y1="0" x2="1" y2="0">
      <stop offset="0%" stop-color="#2F5BFF"/>
      <stop offset="100%" stop-color="#7DD3FC"/>
    </linearGradient>
    <filter id="blur" x="-20%" y="-20%" width="140%" height="140%"><feGaussianBlur stdDeviation="18"/></filter>
  </defs>
  <rect width="1600" height="700" fill="url(#bg)"/>
  <circle cx="1340" cy="90" r="180" fill="#2F5BFF" opacity="0.14" filter="url(#blur)"/>
  <circle cx="220" cy="640" r="220" fill="#22D3EE" opacity="0.08" filter="url(#blur)"/>
  <rect x="72" y="72" width="150" height="38" rx="19" fill="#111B35" stroke="#38579B"/>
  <text x="96" y="98" font-family="Inter,Arial,sans-serif" font-size="18" font-weight="700" fill="#CFE0FF">INSIGHT</text>
  <rect x="240" y="72" width="220" height="38" rx="19" fill="#0f1c35" stroke="#2c467d"/>
  <text x="262" y="98" font-family="Inter,Arial,sans-serif" font-size="18" font-weight="600" fill="#9FC4FF">CTO Model</text>

  <g opacity="0.55" stroke="#7AA2FF" fill="none">
    <path d="M120 510 C 320 410, 520 480, 720 360 C 920 240, 1150 290, 1450 170" stroke="url(#acc)" stroke-width="4"/>
    <path d="M120 560 C 340 500, 560 560, 760 470 C 930 390, 1130 410, 1440 330" stroke="#3D5FAD" stroke-width="2" opacity="0.55"/>
  </g>
  <g fill="#A5BFFF">
    <circle cx="300" cy="430" r="7"/><circle cx="710" cy="365" r="8"/><circle cx="1050" cy="285" r="8"/><circle cx="1400" cy="182" r="7"/>
  </g>
  <g stroke="#2F457D" opacity="0.45">
    <path d="M120 170H1500"/><path d="M120 250H1500"/><path d="M120 330H1500"/><path d="M120 410H1500"/><path d="M120 490H1500"/>
    <path d="M280 130V600"/><path d="M520 130V600"/><path d="M760 130V600"/><path d="M1000 130V600"/><path d="M1240 130V600"/>
  </g>

</svg>