<svg xmlns="http://www.w3.org/2000/svg" width="1600" height="700" viewBox="0 0 1600 700" role="img" aria-label="Hero image for CTO Scorecard Template"><defs><linearGradient id="g" x1="0" y1="0" x2="1" y2="1"><stop offset="0%" stop-color="#111827"/><stop offset="100%" stop-color="#6d28d9"/></linearGradient><filter id="shadow" x="-20%" y="-20%" width="140%" height="140%"><feDropShadow dx="0" dy="6" stdDeviation="8" flood-opacity="0.35"/></filter></defs><rect width="1600" height="700" fill="url(#g)"/><rect x="150" y="90" width="190" height="120" rx="16" fill="#fff" opacity="0.07"/><rect x="400" y="90" width="190" height="120" rx="16" fill="#fff" opacity="0.07"/><rect x="650" y="90" width="190" height="120" rx="16" fill="#fff" opacity="0.07"/><rect x="900" y="90" width="190" height="120" rx="16" fill="#fff" opacity="0.07"/><rect x="1150" y="90" width="190" height="120" rx="16" fill="#fff" opacity="0.07"/><rect x="150" y="250" width="190" height="120" rx="16" fill="#fff" opacity="0.07"/><rect x="400" y="250" width="190" height="120" rx="16" fill="#fff" opacity="0.07"/><rect x="650" y="250" width="190" height="120" rx="16" fill="#fff" opacity="0.07"/><rect x="900" y="250" width="190" height="120" rx="16" fill="#fff" opacity="0.07"/><rect x="1150" y="250" width="190" height="120" rx="16" fill="#fff" opacity="0.07"/><rect x="0" y="470" width="1600" height="230" fill="#000" opacity="0.30"/><text x="88" y="560" font-family="Inter,Arial,sans-serif" font-size="62" font-weight="800" fill="#f8fafc" filter="url(#shadow)">CTO Scorecard Template</text><text x="92" y="612" font-family="Inter,Arial,sans-serif" font-size="28" fill="#cbd5e1">Board clarity with engineering signal</text><text x="92" y="655" font-family="Inter,Arial,sans-serif" font-size="20" fill="#93c5fd">BeyondZenith Insights</text></svg>