<svg xmlns="http://www.w3.org/2000/svg" width="1600" height="700" viewBox="0 0 1600 700" role="img" aria-label="Hero image"><defs><linearGradient id="g" x1="0" y1="0" x2="1" y2="1"><stop offset="0%" stop-color="#111827"/><stop offset="100%" stop-color="#7c3aed"/></linearGradient></defs><rect width="1600" height="700" fill="url(#g)"/><rect x="180" y="140" width="170" height="100" rx="14" fill="#ffffff" opacity="0.08"/><rect x="400" y="140" width="170" height="100" rx="14" fill="#ffffff" opacity="0.08"/><rect x="620" y="140" width="170" height="100" rx="14" fill="#ffffff" opacity="0.08"/><rect x="840" y="140" width="170" height="100" rx="14" fill="#ffffff" opacity="0.08"/><rect x="180" y="280" width="170" height="100" rx="14" fill="#ffffff" opacity="0.08"/><rect x="400" y="280" width="170" height="100" rx="14" fill="#ffffff" opacity="0.08"/><rect x="620" y="280" width="170" height="100" rx="14" fill="#ffffff" opacity="0.08"/><rect x="840" y="280" width="170" height="100" rx="14" fill="#ffffff" opacity="0.08"/><rect x="180" y="420" width="170" height="100" rx="14" fill="#ffffff" opacity="0.08"/><rect x="400" y="420" width="170" height="100" rx="14" fill="#ffffff" opacity="0.08"/><rect x="620" y="420" width="170" height="100" rx="14" fill="#ffffff" opacity="0.08"/><rect x="840" y="420" width="170" height="100" rx="14" fill="#ffffff" opacity="0.08"/><rect x="0" y="560" width="1600" height="140" fill="#000" opacity="0.18"/></svg>