<svg xmlns="http://www.w3.org/2000/svg" width="1600" height="700" viewBox="0 0 1600 700" role="img" aria-label="Hero image for AI ROI Projects"><defs><linearGradient id="g" x1="0" y1="0" x2="1" y2="1"><stop offset="0%" stop-color="#0b1020"/><stop offset="100%" stop-color="#1d4ed8"/></linearGradient><filter id="shadow" x="-20%" y="-20%" width="140%" height="140%"><feDropShadow dx="0" dy="6" stdDeviation="8" flood-opacity="0.35"/></filter></defs><rect width="1600" height="700" fill="url(#g)"/><circle cx="220" cy="180" r="20" fill="#22d3ee" opacity="0.9"/><circle cx="400" cy="300" r="20" fill="#22d3ee" opacity="0.9"/><circle cx="580" cy="180" r="20" fill="#22d3ee" opacity="0.9"/><circle cx="760" cy="300" r="20" fill="#22d3ee" opacity="0.9"/><circle cx="940" cy="180" r="20" fill="#22d3ee" opacity="0.9"/><circle cx="1120" cy="300" r="20" fill="#22d3ee" opacity="0.9"/><circle cx="1300" cy="180" r="20" fill="#22d3ee" opacity="0.9"/><line x1="220" y1="180" x2="400" y2="180" stroke="#93c5fd" stroke-width="3" opacity="0.35"/><line x1="400" y1="300" x2="580" y2="300" stroke="#93c5fd" stroke-width="3" opacity="0.35"/><line x1="580" y1="180" x2="760" y2="180" stroke="#93c5fd" stroke-width="3" opacity="0.35"/><line x1="760" y1="300" x2="940" y2="300" stroke="#93c5fd" stroke-width="3" opacity="0.35"/><line x1="940" y1="180" x2="1120" y2="180" stroke="#93c5fd" stroke-width="3" opacity="0.35"/><line x1="1120" y1="300" x2="1300" y2="300" stroke="#93c5fd" stroke-width="3" opacity="0.35"/><rect x="0" y="470" width="1600" height="230" fill="#000" opacity="0.30"/><text x="88" y="560" font-family="Inter,Arial,sans-serif" font-size="62" font-weight="800" fill="#f8fafc" filter="url(#shadow)">AI ROI Projects</text><text x="92" y="612" font-family="Inter,Arial,sans-serif" font-size="28" fill="#cbd5e1">From experimentation to measurable outcomes</text><text x="92" y="655" font-family="Inter,Arial,sans-serif" font-size="20" fill="#93c5fd">BeyondZenith Insights</text></svg>