<svg xmlns="http://www.w3.org/2000/svg" width="1600" height="700" viewBox="0 0 1600 700" role="img" aria-label="Hero image"><defs><linearGradient id="g" x1="0" y1="0" x2="1" y2="1"><stop offset="0%" stop-color="#0f172a"/><stop offset="100%" stop-color="#334155"/></linearGradient></defs><rect width="1600" height="700" fill="url(#g)"/><rect x="180" y="240" width="140" height="70" rx="14" fill="#ffffff" opacity="0.10"/><rect x="360" y="320" width="140" height="70" rx="14" fill="#ffffff" opacity="0.10"/><rect x="540" y="240" width="140" height="70" rx="14" fill="#ffffff" opacity="0.10"/><rect x="720" y="320" width="140" height="70" rx="14" fill="#ffffff" opacity="0.10"/><rect x="900" y="240" width="140" height="70" rx="14" fill="#ffffff" opacity="0.10"/><rect x="1080" y="320" width="140" height="70" rx="14" fill="#ffffff" opacity="0.10"/><rect x="1260" y="240" width="140" height="70" rx="14" fill="#ffffff" opacity="0.10"/><line x1="320" y1="275" x2="360" y2="235" stroke="#93c5fd" stroke-width="4" opacity="0.5"/><line x1="500" y1="355" x2="540" y2="315" stroke="#93c5fd" stroke-width="4" opacity="0.5"/><line x1="680" y1="275" x2="720" y2="235" stroke="#93c5fd" stroke-width="4" opacity="0.5"/><line x1="860" y1="355" x2="900" y2="315" stroke="#93c5fd" stroke-width="4" opacity="0.5"/><line x1="1040" y1="275" x2="1080" y2="235" stroke="#93c5fd" stroke-width="4" opacity="0.5"/><line x1="1220" y1="355" x2="1260" y2="315" stroke="#93c5fd" stroke-width="4" opacity="0.5"/><rect x="0" y="560" width="1600" height="140" fill="#000" opacity="0.18"/></svg>