<svg xmlns="http://www.w3.org/2000/svg" width="1600" height="900" viewBox="0 0 1600 900" role="img" aria-label="Insight metrics visual">
  <defs>
    <linearGradient id="bg" x1="0" y1="0" x2="1" y2="1">
      <stop offset="0%" stop-color="#F7FAFF"/>
      <stop offset="100%" stop-color="#EEF4FF"/>
    </linearGradient>
    <linearGradient id="acc" x1="0" y1="0" x2="1" y2="0">
      <stop offset="0%" stop-color="#2F5BFF"/>
      <stop offset="100%" stop-color="#7DD3FC"/>
    </linearGradient>
  </defs>
  <rect width="1600" height="900" fill="url(#bg)"/>
  <rect x="52" y="52" width="1496" height="796" rx="28" fill="#FFFFFF" stroke="#D8E5FF"/>

  <rect x="108" y="110" width="1384" height="280" rx="20" fill="#0F1A33"/>
  <rect x="108" y="110" width="1384" height="280" rx="20" fill="url(#acc)" opacity="0.16"/>
  <text x="150" y="200" font-family="Inter,Arial,sans-serif" font-size="120" font-weight="800" fill="#EAF1FF">16%</text>
  <text x="150" y="252" font-family="Inter,Arial,sans-serif" font-size="34" font-weight="600" fill="#C9DAFF">teams have dedicated DevEx specialists</text>

  <rect x="108" y="430" width="430" height="190" rx="16" fill="#F8FBFF" stroke="#D7E4FF"/>
  <rect x="584" y="430" width="430" height="190" rx="16" fill="#F8FBFF" stroke="#D7E4FF"/>
  <rect x="1060" y="430" width="430" height="190" rx="16" fill="#F8FBFF" stroke="#D7E4FF"/>

  <text x="146" y="510" font-family="Inter,Arial,sans-serif" font-size="52" font-weight="800" fill="#1E3A8A">72%</text>
  <text x="146" y="548" font-family="Inter,Arial,sans-serif" font-size="24" fill="#334155">favorable AI sentiment</text>

  <text x="622" y="510" font-family="Inter,Arial,sans-serif" font-size="52" font-weight="800" fill="#1E3A8A">70%</text>
  <text x="622" y="548" font-family="Inter,Arial,sans-serif" font-size="24" fill="#334155">low job-threat sentiment</text>

  <text x="1098" y="510" font-family="Inter,Arial,sans-serif" font-size="52" font-weight="800" fill="#1E3A8A">5.2B</text>
  <text x="1098" y="548" font-family="Inter,Arial,sans-serif" font-size="24" fill="#334155">annual GitHub contributions</text>

  <rect x="108" y="666" width="1384" height="96" rx="14" fill="#F3F8FF" stroke="#CFE0FF"/>
  <text x="146" y="724" font-family="Inter,Arial,sans-serif" font-size="28" font-weight="700" fill="#1F3C88">What to do next:</text>
  <text x="380" y="724" font-family="Inter,Arial,sans-serif" font-size="26" fill="#334155">Pick one KPI, assign one owner, review weekly.</text>

  <text x="108" y="822" font-family="Inter,Arial,sans-serif" font-size="20" fill="#64748B">Source: Stack Overflow 2024 · GitHub Octoverse 2024</text>
</svg>