<svg xmlns="http://www.w3.org/2000/svg" width="1600" height="700" viewBox="0 0 1600 700" role="img" aria-label="AI ROI Signals infographic"><defs><linearGradient id="g" x1="0" y1="0" x2="1" y2="1"><stop offset="0%" stop-color="#0b1020"/><stop offset="100%" stop-color="#1d4ed8"/></linearGradient></defs><rect width="1600" height="700" fill="url(#g)"/><text x="64" y="92" font-size="54" font-family="Inter,Arial,sans-serif" font-weight="800" fill="#f8fafc">AI ROI Signals</text><text x="64" y="130" font-size="22" font-family="Inter,Arial,sans-serif" fill="#cbd5e1">Key benchmarks for 10–100 person teams</text><rect x="100" y="340" width="220" height="220" rx="18" fill="#ffffff" opacity="0.08"/><rect x="128" y="500-h" width="164" height="139" rx="10" fill="#3b82f6" opacity="0.9"/><text x="128" y="395" font-size="42" font-weight="800" fill="#f8fafc">76%</text><text x="128" y="426" font-size="16" fill="#cbd5e1">Using or planning AI tools</text><rect x="460" y="340" width="220" height="220" rx="18" fill="#ffffff" opacity="0.08"/><rect x="488" y="500-h" width="164" height="113" rx="10" fill="#14b8a6" opacity="0.9"/><text x="488" y="395" font-size="42" font-weight="800" fill="#f8fafc">62%</text><text x="488" y="426" font-size="16" fill="#cbd5e1">Using AI in workflow</text><rect x="820" y="340" width="220" height="220" rx="18" fill="#ffffff" opacity="0.08"/><rect x="848" y="500-h" width="164" height="148" rx="10" fill="#f59e0b" opacity="0.9"/><text x="848" y="395" font-size="42" font-weight="800" fill="#f8fafc">81%</text><text x="848" y="426" font-size="16" fill="#cbd5e1">Top benefit: productivity</text><rect x="1180" y="340" width="220" height="220" rx="18" fill="#ffffff" opacity="0.08"/><rect x="1208" y="500-h" width="164" height="180" rx="10" fill="#ef4444" opacity="0.9"/><text x="1208" y="395" font-size="42" font-weight="800" fill="#f8fafc">98% YoY</text><text x="1208" y="426" font-size="16" fill="#cbd5e1">Growth in GenAI projects</text><text x="64" y="650" font-size="18" font-family="Inter,Arial,sans-serif" fill="#93c5fd">Sources: Stack Overflow 2024 · GitHub Octoverse 2024</text></svg>